<svg width="95" height="20" viewBox="0 0 95 20" fill="none" xmlns="http://www.w3.org/2000/svg">
<path d="M4.9027 19H0.618608L7.14631 0.0909085H12.2983L18.8168 19H14.5327L9.79617 4.41193H9.64844L4.9027 19ZM4.63494 11.5675H14.7543V14.6882H4.63494V11.5675ZM25.0906 0.0909085V19H21.0927V0.0909085H25.0906ZM27.6596 3.38707V0.0909085H43.1895V3.38707H37.4004V19H33.4487V3.38707H27.6596ZM50.0241 19.277C48.59 19.277 47.3497 18.9723 46.3033 18.3629C45.263 17.7474 44.4598 16.8918 43.8935 15.7962C43.3272 14.6944 43.044 13.4171 43.044 11.9645C43.044 10.4995 43.3272 9.21922 43.8935 8.12358C44.4598 7.02178 45.263 6.16619 46.3033 5.55682C47.3497 4.94129 48.59 4.63352 50.0241 4.63352C51.4583 4.63352 52.6955 4.94129 53.7358 5.55682C54.7822 6.16619 55.5885 7.02178 56.1548 8.12358C56.7211 9.21922 57.0043 10.4995 57.0043 11.9645C57.0043 13.4171 56.7211 14.6944 56.1548 15.7962C55.5885 16.8918 54.7822 17.7474 53.7358 18.3629C52.6955 18.9723 51.4583 19.277 50.0241 19.277ZM50.0426 16.2301C50.6951 16.2301 51.2398 16.0455 51.6768 15.6761C52.1139 15.3007 52.4432 14.7898 52.6648 14.1435C52.8925 13.4972 53.0064 12.7616 53.0064 11.9368C53.0064 11.112 52.8925 10.3764 52.6648 9.73011C52.4432 9.08381 52.1139 8.57292 51.6768 8.19744C51.2398 7.82197 50.6951 7.63423 50.0426 7.63423C49.384 7.63423 48.83 7.82197 48.3807 8.19744C47.9375 8.57292 47.602 9.08381 47.3743 9.73011C47.1527 10.3764 47.0419 11.112 47.0419 11.9368C47.0419 12.7616 47.1527 13.4972 47.3743 14.1435C47.602 14.7898 47.9375 15.3007 48.3807 15.6761C48.83 16.0455 49.384 16.2301 50.0426 16.2301ZM65.9695 19.277C64.5353 19.277 63.295 18.9723 62.2486 18.3629C61.2083 17.7474 60.4051 16.8918 59.8388 15.7962C59.2725 14.6944 58.9893 13.4171 58.9893 11.9645C58.9893 10.4995 59.2725 9.21922 59.8388 8.12358C60.4051 7.02178 61.2083 6.16619 62.2486 5.55682C63.295 4.94129 64.5353 4.63352 65.9695 4.63352C67.4036 4.63352 68.6409 4.94129 69.6811 5.55682C70.7275 6.16619 71.5339 7.02178 72.1001 8.12358C72.6664 9.21922 72.9496 10.4995 72.9496 11.9645C72.9496 13.4171 72.6664 14.6944 72.1001 15.7962C71.5339 16.8918 70.7275 17.7474 69.6811 18.3629C68.6409 18.9723 67.4036 19.277 65.9695 19.277ZM65.9879 16.2301C66.6404 16.2301 67.1851 16.0455 67.6222 15.6761C68.0592 15.3007 68.3885 14.7898 68.6101 14.1435C68.8378 13.4972 68.9517 12.7616 68.9517 11.9368C68.9517 11.112 68.8378 10.3764 68.6101 9.73011C68.3885 9.08381 68.0592 8.57292 67.6222 8.19744C67.1851 7.82197 66.6404 7.63423 65.9879 7.63423C65.3293 7.63423 64.7753 7.82197 64.326 8.19744C63.8828 8.57292 63.5473 9.08381 63.3196 9.73011C63.098 10.3764 62.9872 11.112 62.9872 11.9368C62.9872 12.7616 63.098 13.4972 63.3196 14.1435C63.5473 14.7898 63.8828 15.3007 64.326 15.6761C64.7753 16.0455 65.3293 16.2301 65.9879 16.2301ZM79.4403 0.0909085V19H75.5071V0.0909085H79.4403ZM94.3908 8.86222L90.79 9.08381C90.7284 8.77604 90.5961 8.49905 90.3929 8.25284C90.1898 8.00047 89.9221 7.80043 89.5897 7.6527C89.2634 7.49882 88.8726 7.42188 88.4171 7.42188C87.8077 7.42188 87.2937 7.55114 86.8752 7.80966C86.4566 8.06203 86.2473 8.40057 86.2473 8.82528C86.2473 9.16383 86.3828 9.45005 86.6536 9.68395C86.9244 9.91785 87.3891 10.1056 88.0478 10.2472L90.6145 10.7642C91.9933 11.0473 93.0212 11.5028 93.6983 12.1307C94.3754 12.7585 94.714 13.5833 94.714 14.6051C94.714 15.5346 94.44 16.3501 93.8922 17.0518C93.3506 17.7536 92.6058 18.3014 91.6578 18.6953C90.7161 19.0831 89.6297 19.277 88.3986 19.277C86.5212 19.277 85.0255 18.8861 83.9114 18.1044C82.8034 17.3165 82.1541 16.2455 81.9632 14.8913L85.8319 14.6882C85.9488 15.2607 86.2319 15.6977 86.6813 15.9993C87.1306 16.2947 87.7061 16.4425 88.4078 16.4425C89.0972 16.4425 89.6512 16.3101 90.0698 16.0455C90.4945 15.7746 90.7099 15.4268 90.7161 15.0021C90.7099 14.6451 90.5591 14.3527 90.2637 14.125C89.9682 13.8911 89.5127 13.7126 88.8972 13.5895L86.4412 13.1001C85.0563 12.8232 84.0253 12.343 83.3482 11.6598C82.6773 10.9766 82.3418 10.1056 82.3418 9.04688C82.3418 8.13589 82.588 7.35109 83.0804 6.69247C83.579 6.03385 84.2776 5.52604 85.1763 5.16903C86.0811 4.81203 87.1399 4.63352 88.3525 4.63352C90.1436 4.63352 91.5532 5.01207 92.5811 5.76918C93.6152 6.52628 94.2185 7.55729 94.3908 8.86222Z" fill="url(#paint0_linear_13_2)"/>
<defs>
<linearGradient id="paint0_linear_13_2" x1="12.5" y1="8" x2="42.6748" y2="34.4701" gradientUnits="userSpaceOnUse">
<stop stop-color="#E2E2E2"/>
<stop offset="1" stop-color="#64FF10"/>
</linearGradient>
</defs>
</svg>
